<svg width="22" height="22" viewBox="0 0 22 22" fill="none" xmlns="http://www.w3.org/2000/svg">
<g clip-path="url(#clip0_27_338)">
<path d="M9.99169 1.9248L19.0658 3.22189L20.3619 12.2969L11.9359 20.7229C11.764 20.8947 11.5309 20.9913 11.2879 20.9913C11.0448 20.9913 10.8117 20.8947 10.6398 20.7229L1.56477 11.6479C1.39293 11.476 1.29639 11.2429 1.29639 10.9998C1.29639 10.7567 1.39293 10.5236 1.56477 10.3517L9.99169 1.9248ZM10.6398 3.86997L3.50902 10.9998L11.2879 18.7777L18.4177 11.6479L17.446 4.84164L10.6398 3.86997ZM12.5831 9.70364C12.2392 9.35963 12.0461 8.8931 12.0462 8.40669C12.0462 8.16584 12.0937 7.92736 12.1859 7.70486C12.2781 7.48236 12.4132 7.2802 12.5836 7.10993C12.7539 6.93965 12.9561 6.8046 13.1786 6.71247C13.4012 6.62034 13.6397 6.57294 13.8805 6.57298C14.3669 6.57307 14.8334 6.76638 15.1773 7.11039C15.5212 7.4544 15.7143 7.92092 15.7142 8.40734C15.7141 8.89375 15.5208 9.36021 15.1768 9.7041C14.8328 10.048 14.3663 10.2411 13.8799 10.241C13.3935 10.241 12.927 10.0476 12.5831 9.70364Z" fill="#343548"/>
</g>
<defs>
<clipPath id="clip0_27_338">
<rect width="22" height="22" fill="white"/>
</clipPath>
</defs>
</svg>
