<svg width="22" height="22" viewBox="0 0 22 22" fill="none" xmlns="http://www.w3.org/2000/svg">
<path d="M6.41666 18.3335C6.41666 16.8147 8.46868 15.5835 11 15.5835C13.5313 15.5835 15.5833 16.8147 15.5833 18.3335" stroke="#343548" stroke-width="2" stroke-linecap="round" stroke-linejoin="round"/>
<path d="M16.5 13.062C18.1187 13.4864 19.25 14.4555 19.25 15.5832" stroke="#343548" stroke-width="2" stroke-linecap="round" stroke-linejoin="round"/>
<path d="M5.5 13.062C3.88125 13.4864 2.75 14.4555 2.75 15.5832" stroke="#343548" stroke-width="2" stroke-linecap="round" stroke-linejoin="round"/>
<path d="M11 12.8335C12.5188 12.8335 13.75 11.6023 13.75 10.0835C13.75 8.56471 12.5188 7.3335 11 7.3335C9.48122 7.3335 8.25 8.56471 8.25 10.0835C8.25 11.6023 9.48122 12.8335 11 12.8335Z" stroke="#343548" stroke-width="2" stroke-linecap="round" stroke-linejoin="round"/>
<path d="M16.5 9.38326C17.0626 8.87972 17.4167 8.14795 17.4167 7.3335C17.4167 5.81471 16.1855 4.5835 14.6667 4.5835C13.9624 4.5835 13.3199 4.84828 12.8333 5.28373" stroke="#343548" stroke-width="2" stroke-linecap="round" stroke-linejoin="round"/>
<path d="M5.50001 9.38326C4.93741 8.87972 4.58334 8.14795 4.58334 7.3335C4.58334 5.81471 5.81456 4.5835 7.33334 4.5835C8.03767 4.5835 8.68015 4.84828 9.16668 5.28373" stroke="#343548" stroke-width="2" stroke-linecap="round" stroke-linejoin="round"/>
</svg>
