<svg width="140" height="140" viewBox="0 0 140 140" fill="none" xmlns="http://www.w3.org/2000/svg">
<rect width="140" height="140" rx="70" fill="#1D181F"/>
<path d="M48.2649 102C48.1582 102 48.0749 101.97 48.0149 101.91C47.9549 101.85 47.9249 101.763 47.9249 101.65V95.3C47.9249 95.1867 47.9549 95.1 48.0149 95.04C48.0749 94.98 48.1582 94.95 48.2649 94.95H50.6149C51.1015 94.95 51.5115 95.0233 51.8449 95.17C52.1782 95.31 52.4349 95.5167 52.6149 95.79C52.7949 96.0633 52.8849 96.4 52.8849 96.8C52.8849 97.24 52.7515 97.6067 52.4849 97.9C52.2249 98.1933 51.8715 98.3867 51.4249 98.48V98.34C51.9249 98.3933 52.3182 98.5733 52.6049 98.88C52.8982 99.18 53.0449 99.58 53.0449 100.08C53.0449 100.707 52.8449 101.183 52.4449 101.51C52.0449 101.837 51.4782 102 50.7449 102H48.2649ZM48.5249 101.48H50.6949C51.2749 101.48 51.7082 101.367 51.9949 101.14C52.2815 100.907 52.4249 100.557 52.4249 100.09C52.4249 99.61 52.2815 99.2567 51.9949 99.03C51.7082 98.8033 51.2749 98.69 50.6949 98.69H48.5249V101.48ZM48.5249 98.17H50.5449C51.1049 98.17 51.5315 98.0567 51.8249 97.83C52.1182 97.5967 52.2649 97.26 52.2649 96.82C52.2649 96.38 52.1182 96.0467 51.8249 95.82C51.5315 95.5867 51.1049 95.47 50.5449 95.47H48.5249V98.17ZM57.5039 102.08C56.8639 102.08 56.3072 101.933 55.8339 101.64C55.3605 101.347 54.9939 100.93 54.7339 100.39C54.4805 99.85 54.3539 99.21 54.3539 98.47C54.3539 97.91 54.4239 97.41 54.5639 96.97C54.7105 96.5233 54.9205 96.1467 55.1939 95.84C55.4672 95.5267 55.7972 95.2867 56.1839 95.12C56.5772 94.9533 57.0172 94.87 57.5039 94.87C58.1572 94.87 58.7205 95.0167 59.1939 95.31C59.6672 95.5967 60.0305 96.01 60.2839 96.55C60.5372 97.0833 60.6639 97.72 60.6639 98.46C60.6639 99.02 60.5905 99.5233 60.4439 99.97C60.2972 100.417 60.0872 100.797 59.8139 101.11C59.5405 101.423 59.2072 101.663 58.8139 101.83C58.4272 101.997 57.9905 102.08 57.5039 102.08ZM57.5039 101.52C58.0372 101.52 58.4905 101.4 58.8639 101.16C59.2372 100.92 59.5205 100.573 59.7139 100.12C59.9139 99.6667 60.0139 99.1167 60.0139 98.47C60.0139 97.5033 59.7939 96.7567 59.3539 96.23C58.9205 95.6967 58.3039 95.43 57.5039 95.43C56.9772 95.43 56.5272 95.55 56.1539 95.79C55.7805 96.03 55.4939 96.3767 55.2939 96.83C55.1005 97.2833 55.0039 97.83 55.0039 98.47C55.0039 99.43 55.2239 100.18 55.6639 100.72C56.1039 101.253 56.7172 101.52 57.5039 101.52ZM65.0918 102.08C64.4518 102.08 63.8951 101.933 63.4218 101.64C62.9484 101.347 62.5818 100.93 62.3218 100.39C62.0684 99.85 61.9418 99.21 61.9418 98.47C61.9418 97.91 62.0118 97.41 62.1518 96.97C62.2984 96.5233 62.5084 96.1467 62.7818 95.84C63.0551 95.5267 63.3851 95.2867 63.7718 95.12C64.1651 94.9533 64.6051 94.87 65.0918 94.87C65.7451 94.87 66.3084 95.0167 66.7818 95.31C67.2551 95.5967 67.6184 96.01 67.8718 96.55C68.1251 97.0833 68.2518 97.72 68.2518 98.46C68.2518 99.02 68.1784 99.5233 68.0318 99.97C67.8851 100.417 67.6751 100.797 67.4018 101.11C67.1284 101.423 66.7951 101.663 66.4018 101.83C66.0151 101.997 65.5784 102.08 65.0918 102.08ZM65.0918 101.52C65.6251 101.52 66.0784 101.4 66.4518 101.16C66.8251 100.92 67.1084 100.573 67.3018 100.12C67.5018 99.6667 67.6018 99.1167 67.6018 98.47C67.6018 97.5033 67.3818 96.7567 66.9418 96.23C66.5084 95.6967 65.8918 95.43 65.0918 95.43C64.5651 95.43 64.1151 95.55 63.7418 95.79C63.3684 96.03 63.0818 96.3767 62.8818 96.83C62.6884 97.2833 62.5918 97.83 62.5918 98.47C62.5918 99.43 62.8118 100.18 63.2518 100.72C63.6918 101.253 64.3051 101.52 65.0918 101.52ZM70.1096 102.06C70.0163 102.06 69.943 102.033 69.8896 101.98C69.8363 101.92 69.8096 101.84 69.8096 101.74V95.2C69.8096 95.1 69.8363 95.0233 69.8896 94.97C69.943 94.9167 70.0163 94.89 70.1096 94.89C70.2096 94.89 70.2863 94.9167 70.3396 94.97C70.393 95.0233 70.4196 95.1 70.4196 95.2V98.19H70.4396L73.8696 95.07C73.943 95.01 74.013 94.9667 74.0796 94.94C74.1463 94.9067 74.2163 94.89 74.2896 94.89C74.383 94.89 74.4496 94.9133 74.4896 94.96C74.5363 95 74.5563 95.0533 74.5496 95.12C74.543 95.18 74.5063 95.24 74.4396 95.3L70.7996 98.59L70.8196 98.21L74.6096 101.59C74.6896 101.663 74.733 101.737 74.7396 101.81C74.7463 101.883 74.723 101.943 74.6696 101.99C74.623 102.037 74.553 102.06 74.4596 102.06C74.3796 102.06 74.3096 102.043 74.2496 102.01C74.1963 101.977 74.133 101.93 74.0596 101.87L70.4396 98.65H70.4196V101.74C70.4196 101.84 70.393 101.92 70.3396 101.98C70.293 102.033 70.2163 102.06 70.1096 102.06ZM76.1839 102.06C76.0905 102.06 76.0172 102.033 75.9639 101.98C75.9105 101.92 75.8839 101.84 75.8839 101.74V95.21C75.8839 95.1033 75.9105 95.0233 75.9639 94.97C76.0172 94.9167 76.0905 94.89 76.1839 94.89C76.2839 94.89 76.3605 94.9167 76.4139 94.97C76.4672 95.0233 76.4939 95.1033 76.4939 95.21V101.74C76.4939 101.84 76.4672 101.92 76.4139 101.98C76.3672 102.033 76.2905 102.06 76.1839 102.06ZM78.625 102.06C78.5317 102.06 78.4584 102.033 78.405 101.98C78.3584 101.927 78.335 101.85 78.335 101.75V95.21C78.335 95.1033 78.3584 95.0233 78.405 94.97C78.4517 94.9167 78.515 94.89 78.595 94.89C78.6817 94.89 78.745 94.9033 78.785 94.93C78.825 94.9567 78.8684 95.0067 78.915 95.08L83.515 101.27H83.285V95.19C83.285 95.09 83.3084 95.0167 83.355 94.97C83.4084 94.9167 83.4817 94.89 83.575 94.89C83.6617 94.89 83.7284 94.9167 83.775 94.97C83.8284 95.0167 83.855 95.09 83.855 95.19V101.75C83.855 101.85 83.8317 101.927 83.785 101.98C83.745 102.033 83.685 102.06 83.605 102.06C83.5317 102.06 83.4717 102.043 83.425 102.01C83.3784 101.983 83.3284 101.937 83.275 101.87L78.685 95.68H78.905V101.75C78.905 101.85 78.8784 101.927 78.825 101.98C78.7784 102.033 78.7117 102.06 78.625 102.06ZM88.8283 102.08C88.0883 102.08 87.465 101.94 86.9583 101.66C86.4517 101.373 86.0683 100.96 85.8083 100.42C85.5483 99.88 85.4183 99.23 85.4183 98.47C85.4183 97.91 85.4917 97.41 85.6383 96.97C85.785 96.5233 85.995 96.1467 86.2683 95.84C86.5483 95.5267 86.8883 95.2867 87.2883 95.12C87.695 94.9533 88.155 94.87 88.6683 94.87C89.115 94.87 89.5383 94.9333 89.9383 95.06C90.3383 95.1867 90.685 95.3867 90.9783 95.66C91.0383 95.7133 91.075 95.77 91.0883 95.83C91.1017 95.8833 91.0983 95.94 91.0783 96C91.0583 96.0533 91.025 96.1 90.9783 96.14C90.9383 96.1733 90.8883 96.1933 90.8283 96.2C90.775 96.2 90.715 96.1767 90.6483 96.13C90.375 95.8833 90.0717 95.7067 89.7383 95.6C89.4117 95.4933 89.0517 95.44 88.6583 95.44C88.105 95.44 87.635 95.56 87.2483 95.8C86.8617 96.0333 86.5683 96.3767 86.3683 96.83C86.1683 97.2833 86.0683 97.83 86.0683 98.47C86.0683 99.4633 86.2983 100.22 86.7583 100.74C87.2183 101.26 87.9117 101.52 88.8383 101.52C89.185 101.52 89.5183 101.487 89.8383 101.42C90.1583 101.353 90.4583 101.26 90.7383 101.14L90.5883 101.56V98.91H89.0083C88.915 98.91 88.8417 98.8867 88.7883 98.84C88.7417 98.7867 88.7183 98.72 88.7183 98.64C88.7183 98.56 88.7417 98.5 88.7883 98.46C88.8417 98.4133 88.915 98.39 89.0083 98.39H90.8583C90.9517 98.39 91.0217 98.4167 91.0683 98.47C91.115 98.5167 91.1383 98.5833 91.1383 98.67V101.36C91.1383 101.44 91.125 101.507 91.0983 101.56C91.0783 101.613 91.0383 101.653 90.9783 101.68C90.7117 101.793 90.3783 101.89 89.9783 101.97C89.585 102.043 89.2017 102.08 88.8283 102.08ZM30.4938 116.08C29.8205 116.08 29.2438 115.937 28.7638 115.65C28.2838 115.357 27.9138 114.94 27.6538 114.4C27.4005 113.86 27.2738 113.217 27.2738 112.47C27.2738 111.91 27.3438 111.41 27.4838 110.97C27.6305 110.523 27.8405 110.147 28.1138 109.84C28.3938 109.527 28.7338 109.287 29.1338 109.12C29.5405 108.953 29.9938 108.87 30.4938 108.87C30.9338 108.87 31.3438 108.933 31.7238 109.06C32.1038 109.187 32.4305 109.373 32.7038 109.62C32.7705 109.68 32.8138 109.743 32.8338 109.81C32.8538 109.877 32.8538 109.94 32.8338 110C32.8205 110.053 32.7905 110.1 32.7438 110.14C32.6971 110.173 32.6405 110.19 32.5738 110.19C32.5138 110.183 32.4471 110.15 32.3738 110.09C32.1205 109.87 31.8371 109.707 31.5238 109.6C31.2171 109.493 30.8771 109.44 30.5038 109.44C29.9505 109.44 29.4805 109.56 29.0938 109.8C28.7138 110.033 28.4238 110.377 28.2238 110.83C28.0305 111.283 27.9338 111.83 27.9338 112.47C27.9338 113.117 28.0305 113.667 28.2238 114.12C28.4238 114.573 28.7138 114.92 29.0938 115.16C29.4805 115.393 29.9505 115.51 30.5038 115.51C30.8705 115.51 31.2105 115.457 31.5238 115.35C31.8371 115.237 32.1238 115.07 32.3838 114.85C32.4571 114.79 32.5238 114.76 32.5838 114.76C32.6505 114.76 32.7038 114.78 32.7438 114.82C32.7905 114.853 32.8238 114.9 32.8438 114.96C32.8638 115.013 32.8638 115.07 32.8438 115.13C32.8305 115.19 32.7938 115.247 32.7338 115.3C32.4471 115.56 32.1138 115.757 31.7338 115.89C31.3605 116.017 30.9471 116.08 30.4938 116.08ZM34.553 116.06C34.4597 116.06 34.3863 116.033 34.333 115.98C34.2797 115.92 34.253 115.84 34.253 115.74V109.27C34.253 109.163 34.2797 109.083 34.333 109.03C34.393 108.977 34.4697 108.95 34.563 108.95H36.913C37.6597 108.95 38.233 109.123 38.633 109.47C39.033 109.817 39.233 110.31 39.233 110.95C39.233 111.363 39.143 111.72 38.963 112.02C38.783 112.313 38.5163 112.537 38.163 112.69C37.8163 112.843 37.3997 112.92 36.913 112.92L37.023 112.79H37.163C37.4163 112.79 37.6363 112.857 37.823 112.99C38.0163 113.123 38.1897 113.34 38.343 113.64L39.403 115.61C39.4497 115.683 39.4697 115.757 39.463 115.83C39.463 115.897 39.4397 115.953 39.393 116C39.3463 116.04 39.2863 116.06 39.213 116.06C39.1263 116.06 39.053 116.04 38.993 116C38.9397 115.96 38.893 115.903 38.853 115.83L37.733 113.74C37.5597 113.42 37.3663 113.21 37.153 113.11C36.9397 113.003 36.653 112.95 36.293 112.95H34.863V115.74C34.863 115.84 34.8363 115.92 34.783 115.98C34.7363 116.033 34.6597 116.06 34.553 116.06ZM34.863 112.43H36.833C37.4263 112.43 37.8697 112.307 38.163 112.06C38.463 111.807 38.613 111.437 38.613 110.95C38.613 110.47 38.463 110.107 38.163 109.86C37.8697 109.607 37.4263 109.48 36.833 109.48H34.863V112.43ZM41.2043 116C41.0977 116 41.0143 115.97 40.9543 115.91C40.8943 115.85 40.8643 115.763 40.8643 115.65V109.3C40.8643 109.187 40.8943 109.1 40.9543 109.04C41.0143 108.98 41.0977 108.95 41.2043 108.95H44.9843C45.0777 108.95 45.1477 108.973 45.1943 109.02C45.241 109.067 45.2643 109.13 45.2643 109.21C45.2643 109.303 45.241 109.373 45.1943 109.42C45.1477 109.46 45.0777 109.48 44.9843 109.48H41.4643V112.16H44.7843C44.8777 112.16 44.9477 112.183 44.9943 112.23C45.041 112.27 45.0643 112.333 45.0643 112.42C45.0643 112.507 45.041 112.573 44.9943 112.62C44.9477 112.667 44.8777 112.69 44.7843 112.69H41.4643V115.47H44.9843C45.0777 115.47 45.1477 115.493 45.1943 115.54C45.241 115.58 45.2643 115.643 45.2643 115.73C45.2643 115.817 45.241 115.883 45.1943 115.93C45.1477 115.977 45.0777 116 44.9843 116H41.2043ZM46.2296 116.06C46.1429 116.06 46.0729 116.04 46.0196 116C45.9729 115.967 45.9462 115.917 45.9396 115.85C45.9396 115.783 45.9562 115.71 45.9896 115.63L48.7996 109.17C48.8462 109.07 48.9029 109 48.9696 108.96C49.0362 108.913 49.1029 108.89 49.1696 108.89C49.2496 108.89 49.3196 108.913 49.3796 108.96C49.4462 109 49.4996 109.07 49.5396 109.17L52.3496 115.63C52.3896 115.71 52.4062 115.783 52.3996 115.85C52.3996 115.917 52.3762 115.967 52.3296 116C52.2896 116.04 52.2262 116.06 52.1396 116.06C52.0462 116.06 51.9696 116.037 51.9096 115.99C51.8562 115.937 51.8096 115.867 51.7696 115.78L50.9996 113.97L51.3296 114.12H46.9996L47.3396 113.97L46.5696 115.78C46.5296 115.88 46.4796 115.953 46.4196 116C46.3662 116.04 46.3029 116.06 46.2296 116.06ZM49.1596 109.71L47.4596 113.71L47.2296 113.59H51.0996L50.8896 113.71L49.1796 109.71H49.1596ZM54.9846 116.06C54.8846 116.06 54.808 116.033 54.7546 115.98C54.7013 115.92 54.6746 115.84 54.6746 115.74V109.5H52.2846C52.1913 109.5 52.118 109.473 52.0646 109.42C52.0113 109.367 51.9846 109.3 51.9846 109.22C51.9846 109.133 52.0113 109.067 52.0646 109.02C52.118 108.973 52.1913 108.95 52.2846 108.95H57.6946C57.788 108.95 57.858 108.973 57.9046 109.02C57.958 109.067 57.9846 109.133 57.9846 109.22C57.9846 109.307 57.958 109.377 57.9046 109.43C57.858 109.477 57.788 109.5 57.6946 109.5H55.2946V115.74C55.2946 115.84 55.268 115.92 55.2146 115.98C55.168 116.033 55.0913 116.06 54.9846 116.06ZM59.1721 116.06C59.0788 116.06 59.0055 116.033 58.9521 115.98C58.8988 115.92 58.8721 115.84 58.8721 115.74V109.21C58.8721 109.103 58.8988 109.023 58.9521 108.97C59.0055 108.917 59.0788 108.89 59.1721 108.89C59.2721 108.89 59.3488 108.917 59.4021 108.97C59.4555 109.023 59.4821 109.103 59.4821 109.21V115.74C59.4821 115.84 59.4555 115.92 59.4021 115.98C59.3555 116.033 59.2788 116.06 59.1721 116.06ZM63.7933 116.06C63.7 116.06 63.62 116.037 63.5533 115.99C63.4933 115.937 63.44 115.863 63.3933 115.77L60.5833 109.28C60.5567 109.193 60.55 109.123 60.5633 109.07C60.5767 109.01 60.61 108.967 60.6633 108.94C60.7167 108.907 60.7767 108.89 60.8433 108.89C60.9367 108.89 61.0067 108.91 61.0533 108.95C61.1 108.99 61.1433 109.05 61.1833 109.13L63.9433 115.55H63.6633L66.4233 109.13C66.4567 109.05 66.5 108.99 66.5533 108.95C66.6067 108.91 66.6767 108.89 66.7633 108.89C66.8367 108.89 66.8967 108.907 66.9433 108.94C66.99 108.973 67.0167 109.02 67.0233 109.08C67.0367 109.133 67.0267 109.2 66.9933 109.28L64.1833 115.77C64.15 115.863 64.1 115.937 64.0333 115.99C63.9733 116.037 63.8933 116.06 63.7933 116.06ZM68.4407 116C68.334 116 68.2507 115.97 68.1907 115.91C68.1307 115.85 68.1007 115.763 68.1007 115.65V109.3C68.1007 109.187 68.1307 109.1 68.1907 109.04C68.2507 108.98 68.334 108.95 68.4407 108.95H72.2207C72.314 108.95 72.384 108.973 72.4307 109.02C72.4773 109.067 72.5007 109.13 72.5007 109.21C72.5007 109.303 72.4773 109.373 72.4307 109.42C72.384 109.46 72.314 109.48 72.2207 109.48H68.7007V112.16H72.0207C72.114 112.16 72.184 112.183 72.2307 112.23C72.2773 112.27 72.3007 112.333 72.3007 112.42C72.3007 112.507 72.2773 112.573 72.2307 112.62C72.184 112.667 72.114 112.69 72.0207 112.69H68.7007V115.47H72.2207C72.314 115.47 72.384 115.493 72.4307 115.54C72.4773 115.58 72.5007 115.643 72.5007 115.73C72.5007 115.817 72.4773 115.883 72.4307 115.93C72.384 115.977 72.314 116 72.2207 116H68.4407ZM76.6819 116.06C76.5886 116.06 76.5152 116.033 76.4619 115.98C76.4086 115.92 76.3819 115.84 76.3819 115.74V109.27C76.3819 109.163 76.4086 109.083 76.4619 109.03C76.5219 108.977 76.5986 108.95 76.6919 108.95H79.0419C79.7886 108.95 80.3619 109.13 80.7619 109.49C81.1619 109.85 81.3619 110.363 81.3619 111.03C81.3619 111.69 81.1619 112.203 80.7619 112.57C80.3619 112.93 79.7886 113.11 79.0419 113.11H76.9919V115.74C76.9919 115.84 76.9652 115.92 76.9119 115.98C76.8652 116.033 76.7886 116.06 76.6819 116.06ZM76.9919 112.57H78.9919C79.5719 112.57 80.0086 112.44 80.3019 112.18C80.5952 111.92 80.7419 111.537 80.7419 111.03C80.7419 110.523 80.5952 110.14 80.3019 109.88C80.0086 109.613 79.5719 109.48 78.9919 109.48H76.9919V112.57ZM82.9321 116C82.8388 116 82.7621 115.973 82.7021 115.92C82.6488 115.86 82.6221 115.78 82.6221 115.68V109.22C82.6221 109.113 82.6488 109.033 82.7021 108.98C82.7555 108.927 82.8288 108.9 82.9221 108.9C83.0221 108.9 83.0988 108.927 83.1521 108.98C83.2055 109.033 83.2321 109.113 83.2321 109.22V115.45H86.6721C86.7721 115.45 86.8455 115.473 86.8921 115.52C86.9455 115.567 86.9721 115.633 86.9721 115.72C86.9721 115.813 86.9455 115.883 86.8921 115.93C86.8455 115.977 86.7721 116 86.6721 116H82.9321ZM87.4893 116.06C87.4027 116.06 87.3327 116.04 87.2793 116C87.2327 115.967 87.206 115.917 87.1993 115.85C87.1993 115.783 87.216 115.71 87.2493 115.63L90.0593 109.17C90.106 109.07 90.1627 109 90.2293 108.96C90.296 108.913 90.3627 108.89 90.4293 108.89C90.5093 108.89 90.5793 108.913 90.6393 108.96C90.706 109 90.7593 109.07 90.7993 109.17L93.6093 115.63C93.6493 115.71 93.666 115.783 93.6593 115.85C93.6593 115.917 93.636 115.967 93.5893 116C93.5493 116.04 93.486 116.06 93.3993 116.06C93.306 116.06 93.2293 116.037 93.1693 115.99C93.116 115.937 93.0693 115.867 93.0293 115.78L92.2593 113.97L92.5893 114.12H88.2593L88.5993 113.97L87.8293 115.78C87.7893 115.88 87.7393 115.953 87.6793 116C87.626 116.04 87.5627 116.06 87.4893 116.06ZM90.4193 109.71L88.7193 113.71L88.4893 113.59H92.3593L92.1493 113.71L90.4393 109.71H90.4193ZM97.7887 116.08C97.1154 116.08 96.5387 115.937 96.0587 115.65C95.5787 115.357 95.2087 114.94 94.9487 114.4C94.6954 113.86 94.5687 113.217 94.5687 112.47C94.5687 111.91 94.6387 111.41 94.7787 110.97C94.9254 110.523 95.1354 110.147 95.4087 109.84C95.6887 109.527 96.0287 109.287 96.4287 109.12C96.8354 108.953 97.2887 108.87 97.7887 108.87C98.2287 108.87 98.6387 108.933 99.0187 109.06C99.3987 109.187 99.7254 109.373 99.9987 109.62C100.065 109.68 100.109 109.743 100.129 109.81C100.149 109.877 100.149 109.94 100.129 110C100.115 110.053 100.085 110.1 100.039 110.14C99.992 110.173 99.9354 110.19 99.8687 110.19C99.8087 110.183 99.742 110.15 99.6687 110.09C99.4154 109.87 99.132 109.707 98.8187 109.6C98.512 109.493 98.172 109.44 97.7987 109.44C97.2454 109.44 96.7754 109.56 96.3887 109.8C96.0087 110.033 95.7187 110.377 95.5187 110.83C95.3254 111.283 95.2287 111.83 95.2287 112.47C95.2287 113.117 95.3254 113.667 95.5187 114.12C95.7187 114.573 96.0087 114.92 96.3887 115.16C96.7754 115.393 97.2454 115.51 97.7987 115.51C98.1654 115.51 98.5054 115.457 98.8187 115.35C99.132 115.237 99.4187 115.07 99.6787 114.85C99.752 114.79 99.8187 114.76 99.8787 114.76C99.9454 114.76 99.9987 114.78 100.039 114.82C100.085 114.853 100.119 114.9 100.139 114.96C100.159 115.013 100.159 115.07 100.139 115.13C100.125 115.19 100.089 115.247 100.029 115.3C99.742 115.56 99.4087 115.757 99.0287 115.89C98.6554 116.017 98.242 116.08 97.7887 116.08ZM101.888 116C101.781 116 101.698 115.97 101.638 115.91C101.578 115.85 101.548 115.763 101.548 115.65V109.3C101.548 109.187 101.578 109.1 101.638 109.04C101.698 108.98 101.781 108.95 101.888 108.95H105.668C105.761 108.95 105.831 108.973 105.878 109.02C105.925 109.067 105.948 109.13 105.948 109.21C105.948 109.303 105.925 109.373 105.878 109.42C105.831 109.46 105.761 109.48 105.668 109.48H102.148V112.16H105.468C105.561 112.16 105.631 112.183 105.678 112.23C105.725 112.27 105.748 112.333 105.748 112.42C105.748 112.507 105.725 112.573 105.678 112.62C105.631 112.667 105.561 112.69 105.468 112.69H102.148V115.47H105.668C105.761 115.47 105.831 115.493 105.878 115.54C105.925 115.58 105.948 115.643 105.948 115.73C105.948 115.817 105.925 115.883 105.878 115.93C105.831 115.977 105.761 116 105.668 116H101.888ZM109.412 116.08C109.092 116.08 108.782 116.053 108.482 116C108.182 115.947 107.902 115.867 107.642 115.76C107.389 115.647 107.159 115.51 106.952 115.35C106.885 115.303 106.839 115.25 106.812 115.19C106.792 115.123 106.789 115.063 106.802 115.01C106.822 114.95 106.852 114.9 106.892 114.86C106.939 114.82 106.992 114.8 107.052 114.8C107.112 114.793 107.175 114.813 107.242 114.86C107.549 115.087 107.872 115.253 108.212 115.36C108.559 115.467 108.959 115.52 109.412 115.52C110.045 115.52 110.519 115.397 110.832 115.15C111.152 114.903 111.312 114.58 111.312 114.18C111.312 113.847 111.195 113.587 110.962 113.4C110.735 113.213 110.359 113.067 109.832 112.96L108.822 112.75C108.189 112.623 107.719 112.41 107.412 112.11C107.105 111.81 106.952 111.41 106.952 110.91C106.952 110.603 107.012 110.327 107.132 110.08C107.252 109.827 107.422 109.61 107.642 109.43C107.862 109.25 108.122 109.113 108.422 109.02C108.729 108.92 109.065 108.87 109.432 108.87C109.865 108.87 110.262 108.93 110.622 109.05C110.989 109.17 111.322 109.36 111.622 109.62C111.682 109.667 111.722 109.723 111.742 109.79C111.762 109.85 111.762 109.91 111.742 109.97C111.722 110.023 111.692 110.067 111.652 110.1C111.612 110.133 111.562 110.153 111.502 110.16C111.442 110.16 111.379 110.133 111.312 110.08C111.032 109.853 110.739 109.69 110.432 109.59C110.132 109.483 109.799 109.43 109.432 109.43C109.059 109.43 108.732 109.49 108.452 109.61C108.179 109.73 107.965 109.9 107.812 110.12C107.659 110.34 107.582 110.6 107.582 110.9C107.582 111.247 107.689 111.523 107.902 111.73C108.115 111.937 108.459 112.087 108.932 112.18L109.952 112.39C110.625 112.53 111.125 112.74 111.452 113.02C111.779 113.293 111.942 113.67 111.942 114.15C111.942 114.437 111.882 114.7 111.762 114.94C111.649 115.173 111.482 115.377 111.262 115.55C111.042 115.723 110.775 115.857 110.462 115.95C110.155 116.037 109.805 116.08 109.412 116.08Z" fill="white"/>
<path d="M94.2126 90.1006C94.7649 90.1006 95.2126 89.6529 95.2126 89.1006C95.2126 88.5483 94.7649 88.1006 94.2126 88.1006V90.1006ZM81.6716 73.1519L80.961 72.4483L81.6716 73.1519ZM70.3937 84.5408L69.6831 85.2445C69.871 85.4341 70.1268 85.5408 70.3937 85.5408C70.6606 85.5408 70.9165 85.4341 71.1043 85.2445L70.3937 84.5408ZM59.1158 73.1519L59.8264 72.4483L59.8264 72.4483L59.1158 73.1519ZM81.6716 50.3742L82.3821 49.6705L82.3821 49.6705L81.6716 50.3742ZM59.1158 50.3742L58.4053 49.6705L58.4053 49.6705L59.1158 50.3742ZM45 90.1006H94.2126V88.1006H45V90.1006ZM78.6211 60.7279C78.6211 65.3311 74.9283 69.0461 70.3937 69.0461V71.0461C76.0513 71.0461 80.6211 66.4172 80.6211 60.7279H78.6211ZM70.3937 69.0461C65.8591 69.0461 62.1664 65.3311 62.1664 60.7279H60.1664C60.1664 66.4172 64.7361 71.0461 70.3937 71.0461V69.0461ZM62.1664 60.7279C62.1664 56.1246 65.8591 52.4097 70.3937 52.4097V50.4097C64.7361 50.4097 60.1664 55.0386 60.1664 60.7279H62.1664ZM70.3937 52.4097C74.9283 52.4097 78.6211 56.1246 78.6211 60.7279H80.6211C80.6211 55.0386 76.0513 50.4097 70.3937 50.4097V52.4097ZM69.54 54.72C68.2548 54.7198 67.0148 55.4507 66.1379 56.3361C65.2599 57.2228 64.5412 58.4706 64.5412 59.7578L66.5412 59.7578C66.5412 59.1809 66.8991 58.4098 67.559 57.7434C68.22 57.0759 68.9793 56.7199 69.5396 56.72L69.54 54.72ZM80.961 72.4483L69.6831 83.8372L71.1043 85.2445L82.3822 73.8556L80.961 72.4483ZM71.1043 83.8372L59.8264 72.4483L58.4053 73.8556L69.6831 85.2445L71.1043 83.8372ZM80.961 51.0778C86.8037 56.978 86.8037 66.5481 80.961 72.4483L82.3822 73.8556C88.9967 67.176 88.9967 56.3502 82.3821 49.6705L80.961 51.0778ZM59.8264 51.0778C65.6637 45.1831 75.1237 45.1831 80.961 51.0778L82.3821 49.6705C75.7622 42.9855 65.0252 42.9855 58.4053 49.6705L59.8264 51.0778ZM58.4053 49.6705C51.7907 56.3502 51.7907 67.176 58.4053 73.8556L59.8264 72.4483C53.9837 66.5481 53.9837 56.978 59.8264 51.0778L58.4053 49.6705Z" fill="white"/>
<path d="M55.016 32C54.8453 32 54.712 31.952 54.616 31.856C54.52 31.76 54.472 31.6213 54.472 31.44V21.28C54.472 21.0987 54.52 20.96 54.616 20.864C54.712 20.768 54.8453 20.72 55.016 20.72H58.776C59.5547 20.72 60.2107 20.8373 60.744 21.072C61.2773 21.296 61.688 21.6267 61.976 22.064C62.264 22.5013 62.408 23.04 62.408 23.68C62.408 24.384 62.1947 24.9707 61.768 25.44C61.352 25.9093 60.7867 26.2187 60.072 26.368V26.144C60.872 26.2293 61.5013 26.5173 61.96 27.008C62.4293 27.488 62.664 28.128 62.664 28.928C62.664 29.9307 62.344 30.6933 61.704 31.216C61.064 31.7387 60.1573 32 58.984 32H55.016ZM55.432 31.168H58.904C59.832 31.168 60.5253 30.9867 60.984 30.624C61.4427 30.2507 61.672 29.6907 61.672 28.944C61.672 28.176 61.4427 27.6107 60.984 27.248C60.5253 26.8853 59.832 26.704 58.904 26.704H55.432V31.168ZM55.432 25.872H58.664C59.56 25.872 60.2427 25.6907 60.712 25.328C61.1813 24.9547 61.416 24.416 61.416 23.712C61.416 23.008 61.1813 22.4747 60.712 22.112C60.2427 21.7387 59.56 21.552 58.664 21.552H55.432V25.872ZM69.9104 32.128C68.833 32.128 67.9104 31.8987 67.1424 31.44C66.3744 30.9707 65.7824 30.304 65.3664 29.44C64.961 28.576 64.7584 27.5467 64.7584 26.352C64.7584 25.456 64.8704 24.656 65.0944 23.952C65.329 23.2373 65.665 22.6347 66.1024 22.144C66.5504 21.6427 67.0944 21.2587 67.7344 20.992C68.385 20.7253 69.1104 20.592 69.9104 20.592C70.6144 20.592 71.2704 20.6933 71.8784 20.896C72.4864 21.0987 73.009 21.3973 73.4464 21.792C73.553 21.888 73.6224 21.9893 73.6544 22.096C73.6864 22.2027 73.6864 22.304 73.6544 22.4C73.633 22.4853 73.585 22.56 73.5104 22.624C73.4357 22.6773 73.345 22.704 73.2384 22.704C73.1424 22.6933 73.0357 22.64 72.9184 22.544C72.513 22.192 72.0597 21.9307 71.5584 21.76C71.0677 21.5893 70.5237 21.504 69.9264 21.504C69.041 21.504 68.289 21.696 67.6704 22.08C67.0624 22.4533 66.5984 23.0027 66.2784 23.728C65.969 24.4533 65.8144 25.328 65.8144 26.352C65.8144 27.3867 65.969 28.2667 66.2784 28.992C66.5984 29.7173 67.0624 30.272 67.6704 30.656C68.289 31.0293 69.041 31.216 69.9264 31.216C70.513 31.216 71.057 31.1307 71.5584 30.96C72.0597 30.7787 72.5184 30.512 72.9344 30.16C73.0517 30.064 73.1584 30.016 73.2544 30.016C73.361 30.016 73.4464 30.048 73.5104 30.112C73.585 30.1653 73.6384 30.24 73.6704 30.336C73.7024 30.4213 73.7024 30.512 73.6704 30.608C73.649 30.704 73.5904 30.7947 73.4944 30.88C73.0357 31.296 72.5024 31.6107 71.8944 31.824C71.297 32.0267 70.6357 32.128 69.9104 32.128ZM76.4051 32.096C76.2558 32.096 76.1385 32.0533 76.0531 31.968C75.9678 31.872 75.9251 31.744 75.9251 31.584V21.232C75.9251 21.0613 75.9678 20.9333 76.0531 20.848C76.1491 20.7627 76.2718 20.72 76.4211 20.72H80.1811C81.3758 20.72 82.2931 21.008 82.9331 21.584C83.5731 22.16 83.8931 22.9813 83.8931 24.048C83.8931 25.104 83.5731 25.9253 82.9331 26.512C82.2931 27.088 81.3758 27.376 80.1811 27.376H76.9011V31.584C76.9011 31.744 76.8585 31.872 76.7731 31.968C76.6985 32.0533 76.5758 32.096 76.4051 32.096ZM76.9011 26.512H80.1011C81.0291 26.512 81.7278 26.304 82.1971 25.888C82.6665 25.472 82.9011 24.8587 82.9011 24.048C82.9011 23.2373 82.6665 22.624 82.1971 22.208C81.7278 21.7813 81.0291 21.568 80.1011 21.568H76.9011V26.512Z" fill="white"/>
</svg>
